<?xml version="1.0" standalone="no"?><!DOCTYPE svg PUBLIC "-//W3C//DTD SVG 1.1//EN" "http://www.w3.org/Graphics/SVG/1.1/DTD/svg11.dtd"><svg t="1620351477996" class="icon" viewBox="0 0 1024 1024" version="1.1" xmlns="http://www.w3.org/2000/svg" p-id="4576" xmlns:xlink="http://www.w3.org/1999/xlink" width="200" height="200"><defs><style type="text/css"></style></defs><path d="M832.87 315.63c1.03-17.55-5.15-35.44-18.56-48.85L701.35 153.82c-11.62-15.67-30.26-25.83-51.27-25.83H256.83c-26.52 0-49.25 16.18-58.88 39.21a63.56 63.56 0 0 0-5.05 24.91V545h-24.88c-22.09 0-40 17.91-40 40v142.8c0 22.09 17.91 40 40 40h24.88v70.48h0.46c3.26 32.18 30.43 57.29 63.47 57.29h512.39v0.06c35.23 0 63.79-28.56 63.79-63.79V319.75c0.01-1.39-0.05-2.76-0.14-4.12zM278.46 584.08h27.67l53.08 148.73H321.7l-6.76-22.14h-44.89l-7.17 22.14h-37.51l53.09-148.73z m490.76 247.7H256.7V767.8h406.64c22.09 0 40-17.91 40-40V585c0-22.09-17.91-40-40-40H256.7V191.78h327.51v121.45c0 35.23 28.56 63.79 63.79 63.79h121.22v454.76zM463.94 641.53v32.59h-54.11v26.11h63.33v32.59h-99.2V584.08h99.2v32.59h-63.33v24.86h54.11z m34.64 91.28V584.08h57.8c32.38 0 49.8 23.4 49.8 47.84s-17.42 47.84-49.8 47.84h-21.93v53.06h-35.87z m270.64-419.58H648V191.78h1.09l120.13 120.13v1.32z" fill="#5B38B2" p-id="4577"></path><path d="M570.32 631.92c0-7.73-5.74-15.04-15.58-15.04h-20.29v30.08h20.29c9.84 0 15.58-7.31 15.58-15.04zM293.21 640.48l-13.11 39.69h25.41z" fill="#5B38B2" p-id="4578"></path><path d="M418.800553 354.383585a45.4 45.4 0 1 0 24.080409-87.548695 45.4 45.4 0 1 0-24.080409 87.548695Z" fill="#5B38B2" p-id="4579"></path><path d="M317.05 464.61h133.5L383.8 349zM457.48 383.79h80.83v80.83h-80.83z" fill="#5B38B2" p-id="4580"></path></svg>