<?xml version="1.0" standalone="no"?><!DOCTYPE svg PUBLIC "-//W3C//DTD SVG 1.1//EN" "http://www.w3.org/Graphics/SVG/1.1/DTD/svg11.dtd"><svg t="1620351366680" class="icon" viewBox="0 0 1024 1024" version="1.1" xmlns="http://www.w3.org/2000/svg" p-id="3083" xmlns:xlink="http://www.w3.org/1999/xlink" width="200" height="200"><defs><style type="text/css"></style></defs><path d="M832.87 315.63c1.03-17.55-5.15-35.44-18.56-48.85L701.35 153.82c-11.62-15.67-30.26-25.83-51.27-25.83H256.83c-26.52 0-49.25 16.18-58.88 39.21a63.56 63.56 0 0 0-5.05 24.91V545h-24.88c-22.09 0-40 17.91-40 40v142.8c0 22.09 17.91 40 40 40h24.88v70.48h0.46c3.26 32.18 30.43 57.29 63.47 57.29h512.39v0.06c35.23 0 63.79-28.56 63.79-63.79V319.75c0.01-1.39-0.05-2.76-0.14-4.12z m-63.65 516.15H256.7V767.8h406.64c22.09 0 40-17.91 40-40V585c0-22.09-17.91-40-40-40H256.7V191.78h327.51v121.45c0 35.23 28.56 63.79 63.79 63.79h121.22v454.76z m-448.91-98.97l53.08-148.73h27.67l53.08 148.73h-37.51l-6.76-22.14h-44.89l-7.17 22.14h-37.5z m148.6 0V584.08h35.87v148.73h-35.87z m300.31-419.58H648V191.78h1.09l120.13 120.13v1.32z" fill="#FF661A" p-id="3084"></path><path d="M388.15 640.48l-13.12 39.69h25.42zM467.57 320.11c5.88 0 11.62 0.62 17.16 1.78-7.91-37.66-41.31-65.94-81.32-65.94-45.9 0-83.1 37.21-83.1 83.1 0 40.01 28.28 73.41 65.94 81.32a83.591 83.591 0 0 1-1.78-17.16c0-45.89 37.21-83.1 83.1-83.1zM484.73 321.9a83.591 83.591 0 0 1 1.78 17.16c0 45.9-37.21 83.1-83.1 83.1-5.88 0-11.62-0.62-17.16-1.78 7.91 37.66 41.31 65.94 81.32 65.94 45.9 0 83.1-37.21 83.1-83.1 0-40.02-28.28-73.42-65.94-81.32z" fill="#FF661A" p-id="3085"></path></svg>