<?xml version="1.0" standalone="no"?><!DOCTYPE svg PUBLIC "-//W3C//DTD SVG 1.1//EN" "http://www.w3.org/Graphics/SVG/1.1/DTD/svg11.dtd"><svg t="1620351373665" class="icon" viewBox="0 0 1024 1024" version="1.1" xmlns="http://www.w3.org/2000/svg" p-id="3233" xmlns:xlink="http://www.w3.org/1999/xlink" width="200" height="200"><defs><style type="text/css"></style></defs><path d="M832.87 315.63c1.03-17.55-5.15-35.44-18.56-48.85L701.35 153.82c-11.62-15.67-30.26-25.83-51.27-25.83H256.83c-26.52 0-49.25 16.18-58.88 39.21a63.56 63.56 0 0 0-5.05 24.91V545h-24.88c-22.09 0-40 17.91-40 40v142.8c0 22.09 17.91 40 40 40h24.88v70.48h0.46c3.26 32.18 30.43 57.29 63.47 57.29h512.39v0.06c35.23 0 63.79-28.56 63.79-63.79V319.75c0.01-1.39-0.05-2.76-0.14-4.12zM273.75 695.21c2.66 3.55 7.58 6.27 14.14 6.27 11.89 0 16.4-7.52 18.65-15.88h36.48c-5.33 32.8-27.67 48.46-55.34 48.46-17.01 0-29.92-5.85-40.58-16.71-15.37-15.67-14.76-36.56-14.76-58.91s-0.61-43.24 14.76-58.91c10.66-10.86 23.57-16.71 40.58-16.71 27.67 0 50.01 15.67 55.34 48.46h-36.48c-2.25-8.36-6.76-15.88-18.65-15.88-6.56 0-11.48 2.71-14.14 6.27-3.28 4.39-5.53 9.61-5.53 36.76 0 27.17 2.26 32.39 5.53 36.78z m495.47 136.57H256.7V767.8h406.64c22.09 0 40-17.91 40-40V585c0-22.09-17.91-40-40-40H256.7V191.78h327.51v121.45c0 35.23 28.56 63.79 63.79 63.79h121.22v454.76zM455.35 718.19c-10.04 10.24-24.19 14.62-39.35 14.62h-54.11V584.08H416c15.17 0 29.31 4.39 39.35 14.62 17.01 17.34 15.17 36.35 15.17 59.74-0.01 23.4 1.84 42.41-15.17 59.75z m155.36 14.62H569.1l-25.82-55.36h-12.09v55.36h-35.87V584.08h57.8c32.38 0 49.8 23.4 49.8 47.84 0 20.26-12.3 33-23.77 38.85l31.56 62.04z m158.51-419.58H648V191.78h1.09l120.13 120.13v1.32z" fill="#39B54A" p-id="3234"></path><path d="M413.54 616.67h-15.78v83.56h15.78c9.02 0 13.94-3.34 17.22-8.36 2.87-4.18 3.89-8.15 3.89-33.42 0-25.07-1.02-29.24-3.89-33.42-3.29-5.02-8.2-8.36-17.22-8.36zM551.47 616.88h-20.29v30.08h20.29c9.84 0 15.58-7.31 15.58-15.04 0-7.73-5.74-15.04-15.58-15.04zM374.15 263.55c-12.71-12.01-32.76-11.47-44.79 1.2-12.03 12.67-11.49 32.67 1.22 44.68l101.99 95.92 43.58-45.88-102-95.92zM538.8 433.93c-2.43-20.74-7.86-46.05-46.05-59.29l-43.58 45.88s41.38 77.16 118.23 53.7c0.01 0-26.6-23.14-28.6-40.29z" fill="#39B54A" p-id="3235"></path></svg>