<?xml version="1.0" standalone="no"?><!DOCTYPE svg PUBLIC "-//W3C//DTD SVG 1.1//EN" "http://www.w3.org/Graphics/SVG/1.1/DTD/svg11.dtd"><svg t="1620351270814" class="icon" viewBox="0 0 1024 1024" version="1.1" xmlns="http://www.w3.org/2000/svg" p-id="1728" xmlns:xlink="http://www.w3.org/1999/xlink" width="200" height="200"><defs><style type="text/css"></style></defs><path d="M351.47 320.22H479.2c17.75 0 32.14-14.39 32.14-32.14s-14.39-32.14-32.14-32.14H351.47c-17.75 0-32.14 14.39-32.14 32.14 0 17.76 14.39 32.14 32.14 32.14z" fill="#4366FF" p-id="1729"></path><path d="M832.87 315.63c1.03-17.55-5.15-35.44-18.56-48.85L701.35 153.82c-11.62-15.67-30.26-25.83-51.27-25.83H256.83c-26.52 0-49.25 16.18-58.88 39.21a63.56 63.56 0 0 0-5.05 24.91V545h-24.88c-22.09 0-40 17.91-40 40v142.8c0 22.09 17.91 40 40 40h24.88v70.48h0.46c3.26 32.18 30.43 57.29 63.47 57.29h512.39v0.06c35.23 0 63.79-28.56 63.79-63.79V319.75c0.01-1.39-0.05-2.76-0.14-4.12zM236.13 584.08h54.11c15.17 0 29.31 4.39 39.35 14.62 17.01 17.34 15.17 36.35 15.17 59.74 0 23.4 1.84 42.41-15.17 59.74-10.04 10.24-24.19 14.62-39.35 14.62h-54.11V584.08z m533.09 247.7H256.7V767.8h406.64c22.09 0 40-17.91 40-40V585c0-22.09-17.91-40-40-40H256.7V191.78h327.51v121.45c0 35.23 28.56 63.79 63.79 63.79h121.22v454.76zM379.6 599.54c10.66-10.86 22.96-16.71 40.79-16.71s30.13 5.85 40.79 16.71c15.37 15.67 14.76 36.56 14.76 58.91s0.61 43.24-14.76 58.91c-10.66 10.86-22.96 16.71-40.79 16.71s-30.13-5.85-40.79-16.71c-15.37-15.67-14.76-36.56-14.76-58.91s-0.61-43.24 14.76-58.91z m131.17 0c10.66-10.86 23.57-16.71 40.58-16.71 27.67 0 50.01 15.67 55.34 48.46h-36.48c-2.25-8.36-6.76-15.88-18.65-15.88-6.56 0-11.48 2.71-14.14 6.27-3.28 4.39-5.53 9.61-5.53 36.76 0 27.16 2.25 32.38 5.53 36.77 2.67 3.55 7.58 6.27 14.14 6.27 11.89 0 16.4-7.52 18.65-15.88h36.48c-5.33 32.8-27.67 48.46-55.34 48.46-17.01 0-29.92-5.85-40.58-16.71-15.37-15.67-14.76-36.56-14.76-58.91s-0.61-43.23 14.76-58.9z m258.45-286.31H648V191.78h1.09l120.13 120.13v1.32z" fill="#4366FF" p-id="1730"></path><path d="M304.99 691.87c2.87-4.18 3.89-8.15 3.89-33.42 0-25.07-1.02-29.24-3.89-33.42-3.28-5.01-8.2-8.36-17.22-8.36H272v83.56h15.78c9.02-0.01 13.93-3.35 17.21-8.36zM420.38 701.48c6.56 0 11.68-3.13 14.35-6.68 3.28-4.39 5.33-9.19 5.33-36.35 0-27.16-2.05-32.17-5.33-36.56-2.66-3.55-7.79-6.48-14.35-6.48s-11.68 2.92-14.35 6.48c-3.28 4.39-5.33 9.4-5.33 36.56 0 27.16 2.05 31.96 5.33 36.35 2.67 3.54 7.8 6.68 14.35 6.68zM543.98 384.04H351.47c-17.75 0-32.14 14.39-32.14 32.14s14.39 32.14 32.14 32.14h192.51c17.75 0 32.14-14.39 32.14-32.14-0.01-17.75-14.4-32.14-32.14-32.14z" fill="#4366FF" p-id="1731"></path></svg>