<?xml version="1.0" standalone="no"?><!DOCTYPE svg PUBLIC "-//W3C//DTD SVG 1.1//EN" "http://www.w3.org/Graphics/SVG/1.1/DTD/svg11.dtd"><svg t="1620351404187" class="icon" viewBox="0 0 1024 1024" version="1.1" xmlns="http://www.w3.org/2000/svg" p-id="3681" xmlns:xlink="http://www.w3.org/1999/xlink" width="200" height="200"><defs><style type="text/css"></style></defs><path d="M832.87 315.63c1.03-17.55-5.15-35.44-18.56-48.85L701.35 153.82c-11.62-15.67-30.26-25.83-51.27-25.83H256.83c-26.52 0-49.25 16.18-58.88 39.21a63.56 63.56 0 0 0-5.05 24.91V545h-24.88c-22.09 0-40 17.91-40 40v142.8c0 22.09 17.91 40 40 40h24.88v70.48h0.46c3.26 32.18 30.43 57.29 63.47 57.29h512.39v0.06c35.23 0 63.79-28.56 63.79-63.79V319.75c0.01-1.39-0.05-2.76-0.14-4.12z m-505.83 325.9v32.59h-54.11v26.11h63.33v32.59h-99.2V584.08h99.2v32.59h-63.33v24.86h54.11z m442.18 190.25H256.7V767.8h406.64c22.09 0 40-17.91 40-40V585c0-22.09-17.91-40-40-40H256.7V191.78h327.51v121.45c0 35.23 28.56 63.79 63.79 63.79h121.22v454.76z m-419.43-247.7h40.79l21.32 41.99 21.32-41.99H474l-42.63 72.49 45.5 76.25h-40.99l-23.98-45.75-23.98 45.75h-40.99l45.5-76.25-42.64-72.49z m231.81 57.45v32.59h-54.11v26.11h63.33v32.59h-99.2V584.08h99.2v32.59h-63.33v24.86h54.11z m187.62-328.3H648V191.78h1.09l120.13 120.13v1.32z" fill="#999999" p-id="3682"></path><path d="M515.38 337.95h-14.91l10.54-10.54c8.29-8.29 8.29-21.72 0-30.01l-12.42-12.42c-8.29-8.29-21.72-8.29-30.01 0l-10.54 10.54v-14.91c0-11.72-9.5-21.22-21.22-21.22h-17.56c-11.72 0-21.22 9.5-21.22 21.22v14.91l-10.54-10.54c-8.29-8.29-21.72-8.29-30.01 0l-12.42 12.42c-8.29 8.29-8.29 21.72 0 30.01l10.54 10.54H340.7c-11.72 0-21.22 9.5-21.22 21.22v17.56c0 11.72 9.5 21.22 21.22 21.22h14.91l-10.54 10.54c-8.29 8.29-8.29 21.72 0 30.01l12.42 12.42c8.29 8.29 21.72 8.29 30.01 0l10.54-10.54v14.91c0 11.72 9.5 21.22 21.22 21.22h17.56c11.72 0 21.22-9.5 21.22-21.22v-14.91l10.54 10.54c8.29 8.29 21.72 8.29 30.01 0l12.42-12.42c8.29-8.29 8.29-21.72 0-30.01l-10.54-10.54h14.91c11.72 0 21.22-9.5 21.22-21.22v-17.56c0-11.72-9.5-21.22-21.22-21.22z m-87.33 69.5c-21.82 0-39.51-17.69-39.51-39.51s17.69-39.51 39.51-39.51 39.51 17.69 39.51 39.51-17.69 39.51-39.51 39.51z" fill="#999999" p-id="3683"></path></svg>