<?xml version="1.0" standalone="no"?><!DOCTYPE svg PUBLIC "-//W3C//DTD SVG 1.1//EN" "http://www.w3.org/Graphics/SVG/1.1/DTD/svg11.dtd"><svg t="1620350865883" class="icon" viewBox="0 0 1024 1024" version="1.1" xmlns="http://www.w3.org/2000/svg" p-id="2115" xmlns:xlink="http://www.w3.org/1999/xlink" width="200" height="200"><defs><style type="text/css"></style></defs><path d="M0 0h1024v1024H0z" fill="#FFFFFF" p-id="2116"></path><path d="M859.008 980.608H164.992a34.56 34.56 0 0 1-34.56-34.56V77.952a34.56 34.56 0 0 1 34.56-34.56H614.4a34.304 34.304 0 0 1 23.808 9.472L883.2 285.696a34.432 34.432 0 0 1 10.752 25.6v634.752a34.56 34.56 0 0 1-34.944 34.56zM199.552 911.36h624.896V325.632L600.32 112.64H199.552z" fill="#0082FD" p-id="2117"></path><path d="M277.376 380.288h469.12v69.248H277.376zM277.376 512h469.12v69.248H277.376zM277.376 648.32h469.12v69.248H277.376zM594.688 778.624h151.936v69.248H594.688zM272.384 220.032h234.624v69.248H272.384z" fill="#ABE3FF" p-id="2118"></path><path d="M851.968 345.6H614.4a34.304 34.304 0 0 1-24.576-10.24 34.688 34.688 0 0 1-10.112-24.576l1.408-233.088a34.56 34.56 0 0 1 58.88-24.32l236.288 232.704a34.688 34.688 0 0 1-24.32 59.52zM648.96 276.096H768l-117.76-115.968z" fill="#0082FD" p-id="2119"></path></svg>