<?xml version="1.0" standalone="no"?><!DOCTYPE svg PUBLIC "-//W3C//DTD SVG 1.1//EN" "http://www.w3.org/Graphics/SVG/1.1/DTD/svg11.dtd"><svg t="1620351442982" class="icon" viewBox="0 0 1024 1024" version="1.1" xmlns="http://www.w3.org/2000/svg" p-id="4129" xmlns:xlink="http://www.w3.org/1999/xlink" width="200" height="200"><defs><style type="text/css"></style></defs><path d="M832.87 315.63c1.03-17.55-5.15-35.44-18.56-48.85L701.35 153.82c-11.62-15.67-30.26-25.83-51.27-25.83H256.83c-26.52 0-49.25 16.18-58.88 39.21a63.56 63.56 0 0 0-5.05 24.91v352.93h63.79V191.78H584.2v121.45c0 35.23 28.56 63.79 63.79 63.79h121.22v454.76H256.7V767.8h-63.8v70.48h0.46c3.26 32.18 30.43 57.29 63.47 57.29h512.39v0.06c35.23 0 63.79-28.56 63.79-63.79V319.75c0.01-1.39-0.05-2.76-0.14-4.12z m-63.65-2.4H648V191.78h1.09l120.13 120.13v1.32z" fill="#00A99D" p-id="4130"></path><path d="M663.33 545H168.02c-22.09 0-40 17.91-40 40v142.8c0 22.09 17.91 40 40 40h495.31c22.09 0 40-17.91 40-40V585c0-22.09-17.91-40-40-40zM268.01 732.81h-35.87V673.9h-38.12v58.91h-35.87V584.08h35.87v57.24h38.12v-57.24h35.87v148.73z m128.51-116.14h-35.87v116.14h-35.87V616.67h-35.87v-32.59h107.6v32.59z m157 116.14h-35.87v-71.23l-20.7 36.76h-22.96l-20.7-36.76v71.23h-35.87V584.08h35.25l32.79 65.59 32.79-65.59h35.25v148.73z m126.66 0h-97.15V584.08h35.87v116.14h61.28v32.59z" fill="#00A99D" p-id="4131"></path><path d="M355.15 364.63l49.44-49.44c8.5-8.5 8.5-22.27 0-30.77s-22.27-8.5-30.77 0l-64.68 64.68c-4.29 4.29-6.4 9.91-6.37 15.53a21.66 21.66 0 0 0 6.37 15.53l64.68 64.68c8.5 8.5 22.27 8.5 30.77 0s8.5-22.27 0-30.77l-49.44-49.44zM534.82 348.86l-64.68-64.68c-8.5-8.5-22.27-8.5-30.77 0s-8.5 22.27 0 30.77l49.44 49.44-49.44 49.44c-8.5 8.5-8.5 22.27 0 30.77s22.27 8.5 30.77 0l64.68-64.68c4.29-4.29 6.4-9.91 6.37-15.53a21.76 21.76 0 0 0-6.37-15.53z" fill="#00A99D" p-id="4132"></path></svg>