<?xml version="1.0" standalone="no"?><!DOCTYPE svg PUBLIC "-//W3C//DTD SVG 1.1//EN" "http://www.w3.org/Graphics/SVG/1.1/DTD/svg11.dtd"><svg t="1620351411159" class="icon" viewBox="0 0 1024 1024" version="1.1" xmlns="http://www.w3.org/2000/svg" p-id="3831" xmlns:xlink="http://www.w3.org/1999/xlink" width="200" height="200"><defs><style type="text/css"></style></defs><path d="M832.87 315.63c1.03-17.55-5.15-35.44-18.56-48.85L701.35 153.82c-11.62-15.67-30.26-25.83-51.27-25.83H256.83c-26.52 0-49.25 16.18-58.88 39.21a63.56 63.56 0 0 0-5.05 24.91V545h-24.88c-22.09 0-40 17.91-40 40v142.8c0 22.09 17.91 40 40 40h24.88v70.48h0.46c3.26 32.18 30.43 57.29 63.47 57.29h512.39v0.06c35.23 0 63.79-28.56 63.79-63.79V319.75c0.01-1.39-0.05-2.76-0.14-4.12zM294.59 698.34h-22.96l-20.7-36.76v71.23h-35.87V584.08h35.25l32.79 65.59 32.79-65.59h35.25v148.73h-35.87v-71.23l-20.68 36.76z m474.63 133.44H256.7V767.8h406.64c22.09 0 40-17.91 40-40V585c0-22.09-17.91-40-40-40H256.7V191.78h327.51v121.45c0 35.23 28.56 63.79 63.79 63.79h121.22v454.76z m-378.5-232.24c10.66-10.86 22.96-16.71 40.79-16.71s30.13 5.85 40.79 16.71c15.37 15.67 14.76 36.56 14.76 58.91s0.62 43.24-14.76 58.91c-10.66 10.86-22.96 16.71-40.79 16.71s-30.13-5.85-40.79-16.71c-15.37-15.67-14.76-36.56-14.76-58.91s-0.61-43.24 14.76-58.91z m104.33-15.46h37.1l24.59 83.14 24.18-83.14h37.3l-48.37 148.73h-26.64l-48.16-148.73z m274.17-270.85H648V191.78h1.09l120.13 120.13v1.32z" fill="#0071BC" p-id="3832"></path><path d="M431.51 701.48c6.56 0 11.68-3.13 14.35-6.68 3.28-4.39 5.33-9.19 5.33-36.35 0-27.16-2.05-32.17-5.33-36.56-2.66-3.55-7.79-6.48-14.35-6.48s-11.68 2.92-14.35 6.48c-3.28 4.39-5.33 9.4-5.33 36.56 0 27.16 2.05 31.96 5.33 36.35 2.66 3.54 7.79 6.68 14.35 6.68zM422.69 256c-56.7 0-102.66 45.96-102.66 102.66 0 56.7 45.96 102.66 102.66 102.66 56.7 0 102.66-45.96 102.66-102.66 0-56.7-45.97-102.66-102.66-102.66z m59.8 115.63l-81.89 47.28c-9.98 5.76-22.46-1.44-22.46-12.97v-94.55c0-11.53 12.48-18.73 22.46-12.97l81.89 47.28c9.98 5.75 9.98 20.16 0 25.93z" fill="#0071BC" p-id="3833"></path></svg>