<?xml version="1.0" standalone="no"?><!DOCTYPE svg PUBLIC "-//W3C//DTD SVG 1.1//EN" "http://www.w3.org/Graphics/SVG/1.1/DTD/svg11.dtd"><svg t="1620351463413" class="icon" viewBox="0 0 1024 1024" version="1.1" xmlns="http://www.w3.org/2000/svg" p-id="4280" xmlns:xlink="http://www.w3.org/1999/xlink" width="200" height="200"><defs><style type="text/css"></style></defs><path d="M832.87 315.63c1.03-17.55-5.15-35.44-18.56-48.85L701.35 153.82c-11.62-15.67-30.26-25.83-51.27-25.83H256.83c-26.52 0-49.25 16.18-58.88 39.21a63.56 63.56 0 0 0-5.05 24.91V545h-24.88c-22.09 0-40 17.91-40 40v142.8c0 22.09 17.91 40 40 40h24.88v70.48h0.46c3.26 32.18 30.43 57.29 63.47 57.29h512.39v0.06c35.23 0 63.79-28.56 63.79-63.79V319.75c0.01-1.39-0.05-2.76-0.14-4.12zM305.68 698.34h-22.96l-20.7-36.76v71.23h-35.87V584.08h35.25l32.79 65.59 32.79-65.59h35.25v148.73h-35.87v-71.23l-20.68 36.76z m463.54 133.44H256.7V767.8h406.64c22.09 0 40-17.91 40-40V585c0-22.09-17.91-40-40-40H256.7V191.78h327.51v121.45c0 35.23 28.56 63.79 63.79 63.79h121.22v454.76z m-377.46-98.97V584.08h57.8c32.38 0 49.8 23.4 49.8 47.84s-17.42 47.84-49.8 47.84h-21.93v53.06h-35.87z m170.32-61.2h-4.71v-29.66h4.71c10.04 0 13.94-7.31 13.94-14 0-9.4-6.35-14.21-13.32-14.21-6.97 0-13.32 5.01-13.32 14h-33.61c0-27.99 20.91-44.91 46.94-44.91 27.05 0 46.93 18.38 46.93 44.08 0 16.29-7.79 24.23-15.17 29.04 7.99 5.64 16.81 14.62 16.81 32.38 0 31.13-22.96 45.75-48.57 45.75-24.19 0-48.58-13.16-48.58-46.58h33.61c0 10.45 6.56 15.67 14.96 15.67 8.81 0 14.96-5.22 14.96-15.88 0-9-6.56-15.68-15.58-15.68z m207.14-358.38H648V191.78h1.09l120.13 120.13v1.32z" fill="#2E3192" p-id="4281"></path><path d="M463.5 631.92c0-7.73-5.74-15.04-15.58-15.04h-20.29v30.08h20.29c9.84 0 15.58-7.31 15.58-15.04zM524.2 330.62h-42.41c-10.47 0-20.03 6.16-24.36 15.68l-5.54 12.16c-1.53 3.36-6.25 3.49-7.96 0.21l-7.68-14.7-27.64-52.48a26.74 26.74 0 0 0-23.4-14.29h-0.28c-9.74 0-18.69 5.27-23.42 13.81l-20.65 37.33a4.442 4.442 0 0 1-3.88 2.29h-14.02c-2.45 0-4.43 1.98-4.43 4.43v41.14c0 2.45 1.98 4.43 4.43 4.43h27.72c11.35 0 21.8-6.16 27.3-16.09l2.48-4.48c1.71-3.08 6.16-3.04 7.8 0.08l3.72 7.07 33.86 64.84c4.66 8.92 13.69 14.37 23.7 14.37 0.25 0 0.5 0 0.75-0.01 10.31-0.28 19.37-6.28 23.64-15.67l21.64-47.51a4.44 4.44 0 0 1 4.03-2.6h24.61c2.45 0 4.43-1.98 4.43-4.43v-41.14c-0.01-2.45-1.99-4.44-4.44-4.44z" fill="#2E3192" p-id="4282"></path></svg>