<?xml version="1.0" standalone="no"?><!DOCTYPE svg PUBLIC "-//W3C//DTD SVG 1.1//EN" "http://www.w3.org/Graphics/SVG/1.1/DTD/svg11.dtd"><svg t="1620371840424" class="icon" viewBox="0 0 1024 1024" version="1.1" xmlns="http://www.w3.org/2000/svg" p-id="2947" xmlns:xlink="http://www.w3.org/1999/xlink" width="200" height="200"><defs><style type="text/css"></style></defs><path d="M677.762854 1.313873H149.503672C134.476246 1.313873 117.560127 3.859503 117.560127 26.523817v969.638493a43.439936 43.439936 0 0 0 31.943545 27.83769h729.610264c14.698957 0 5.501844-21.432558 5.501845-27.83769v-766.973537c0-12.810265 8.868645-16.998236 5.748195-19.872334L683.839518 1.313873c-2.874098-2.874098-1.888693 0-6.076664 0z" fill="#DDE1E5" p-id="2948"></path><path d="M680.883303 0v209.316439h209.480673zM126.182421 576.544026h770.833039q62.080513 0 61.998396 61.998396v227.546431q0 61.998396-61.998396 61.998396H126.182421Q64.184024 927.923015 64.184024 866.088853V638.542422q0-61.998396 61.998397-61.998396z" fill="#3CA7E3" p-id="2949"></path><path d="M406.530135 860.094306V741.353007q0-16.423416 1.724459-41.05854a217.856616 217.856616 0 0 1-5.994547 25.045709l-49.270249 135.082599h-32.846832l-49.270249-134.836247a268.93344 268.93344 0 0 1-6.323015-26.4417q1.724459 24.635124 1.724459 49.270248v110.611708h-38.759263V664.327185h60.602406l41.715477 118.741299a142.883721 142.883721 0 0 1 7.144186 28.740979c2.217161-9.771933 4.927025-19.297514 8.211709-28.740979L387.314738 665.148356h60.356055v195.685004z m128.513232-68.157177v68.157177h-41.715477V664.327185h66.432718q72.919968 0 73.002085 61.834162a59.288532 59.288532 0 0 1-22.171612 48.284844 81.131676 81.131676 0 0 1-55.182678 17.244587z m0-95.09158v63.230153h18.065758q36.870569 0 36.788452-31.943545t-36.213633-31.286608z m234.526383-32.846832v124.817963h28.740978v28.740978h-28.740978v41.63336h-37.363272v-41.05854h-86.222935v-28.740978a697.995188 697.995188 0 0 0 50.009303-64.051324 409.846351 409.846351 0 0 0 36.213632-61.259342z m-88.522213 124.817963h51.158941v-71.852446a283.139695 283.139695 0 0 1-17.244587 28.740979c-7.719006 9.936167-18.969046 24.635124-33.914354 43.111467z" fill="#FFFFFF" p-id="2950"></path><path d="M436.256518 243.477145a4.187971 4.187971 0 0 0-4.270088 0 4.023737 4.023737 0 0 0-2.217161 3.531035v168.668484a4.023737 4.023737 0 0 0 2.217161 3.531034l1.806576 0.410586a4.680674 4.680674 0 0 0 2.463512-0.821171l132.290618-84.580593a3.777386 3.777386 0 0 0 1.478107-3.120449 4.023737 4.023737 0 0 0-1.478107-3.12045z" fill="#DDE1E5" p-id="2951"></path><path d="M290.745051 189.444106h386.689334v283.386046H290.745051z" fill="#3CA7E3" p-id="2952"></path><path d="M568.547136 334.21652L436.256518 418.797113a4.680674 4.680674 0 0 1-2.463512 0.821171l-1.806576-0.410586a4.023737 4.023737 0 0 1-2.217161-3.531034V246.351243a4.023737 4.023737 0 0 1 2.217161-3.531034 4.187971 4.187971 0 0 1 4.270088 0l132.290618 85.155412a4.023737 4.023737 0 0 1 1.478107 3.12045 3.777386 3.777386 0 0 1-1.478107 3.120449z" fill="#FFFFFF" p-id="2953"></path><path d="M371.21979 494.016359h62.819567v26.605935h-62.819567zM614.532701 495.083881h62.819567v26.605935h-62.819567zM290.745051 494.016359h62.819567v26.605935h-62.819567zM451.037593 494.016359h62.819567v26.605935h-62.819567zM531.512332 494.016359h62.819567v26.605935h-62.819567zM531.512332 141.323496h62.819567v26.605935h-62.819567zM614.532701 142.391018h62.819567v26.605935h-62.819567zM451.037593 141.323496h62.819567v26.605935h-62.819567zM290.745051 141.323496h62.819567v26.605935h-62.819567zM371.21979 141.323496h62.819567v26.605935h-62.819567z" fill="#3CA7E3" p-id="2954"></path></svg>