<?xml version="1.0" standalone="no"?><!DOCTYPE svg PUBLIC "-//W3C//DTD SVG 1.1//EN" "http://www.w3.org/Graphics/SVG/1.1/DTD/svg11.dtd"><svg t="1620351280570" class="icon" viewBox="0 0 1024 1024" version="1.1" xmlns="http://www.w3.org/2000/svg" p-id="1879" xmlns:xlink="http://www.w3.org/1999/xlink" width="200" height="200"><defs><style type="text/css"></style></defs><path d="M292.29 616.88H272v30.08h20.29c9.84 0 15.58-7.31 15.58-15.04-0.01-7.73-5.75-15.04-15.58-15.04zM416.29 616.67h-15.78v83.56h15.78c9.02 0 13.94-3.34 17.22-8.36 2.87-4.18 3.89-8.15 3.89-33.42 0-25.07-1.02-29.24-3.89-33.42-3.28-5.02-8.2-8.36-17.22-8.36z" fill="#C1272D" p-id="1880"></path><path d="M663.33 545H168.02c-22.09 0-40 17.91-40 40v142.8c0 22.09 17.91 40 40 40h495.31c22.09 0 40-17.91 40-40V585c0-22.09-17.91-40-40-40z m-369.4 134.75H272v53.06h-35.87V584.08h57.8c32.38 0 49.8 23.4 49.8 47.84s-17.42 47.83-49.8 47.83z m164.17 38.44c-10.04 10.24-24.19 14.62-39.35 14.62h-54.11V584.08h54.11c15.17 0 29.31 4.39 39.35 14.62 17.01 17.34 15.17 36.35 15.17 59.74 0 23.4 1.84 42.41-15.17 59.75z m139.17-101.52h-63.33v26.11h54.11v32.59h-54.11v57.45h-35.87V584.08h99.2v32.59z" fill="#C1272D" p-id="1881"></path><path d="M832.87 315.63c1.03-17.55-5.15-35.44-18.56-48.85L701.35 153.82c-11.62-15.67-30.26-25.83-51.27-25.83H256.83c-26.52 0-49.25 16.18-58.88 39.21a63.56 63.56 0 0 0-5.05 24.91v352.93h63.79V191.78H584.2v121.45c0 35.23 28.56 63.79 63.79 63.79h121.22v454.76H256.7V767.8h-63.8v70.48h0.46c3.26 32.18 30.43 57.29 63.47 57.29h512.39v0.06c35.23 0 63.79-28.56 63.79-63.79V319.75c0.01-1.39-0.05-2.76-0.14-4.12z m-63.65-2.4H648V191.78h1.09l120.13 120.13v1.32z" fill="#C1272D" p-id="1882"></path><path d="M386.27 399.36c-28.35 10.95-60.58 26.73-75.63 45.94-11.47 14.64-11.99 30.47-1.42 43.41 6.73 8.25 15.3 12.47 24.5 12.47 5.83 0 11.93-1.7 17.98-5.14 21.8-12.42 41.62-46.29 55.11-74.48 15.99-5.73 33.39-10.94 51.14-15.17 7.2-1.72 14.3-3.23 21.18-4.51 19.21 15.7 42.62 30.96 62.6 32.69 18.73 1.62 32.48-8.76 36.77-27.79 3.1-13.74-3.05-25.74-16.46-32.1-17.73-8.42-47.57-6.82-74.79-2.6-16.26-14.47-32.58-31.94-45.79-49.15 5.29-23.85 7.96-48.74 1.99-65.06-5.38-14.69-17.48-21.81-32.35-19.04-16.81 3.13-26.34 15.3-25.5 32.56 0.86 17.72 12.5 39.01 25.56 57.59-2.5 9.63-5.56 19.79-9.09 30.12a464.33 464.33 0 0 1-15.8 40.26z m-51.94 73.79c-0.65 0.12-1.46 0.26-3.42-2.14-1.56-1.91-1.31-2.68-1-3.66 0.43-1.38 2.17-5.2 8.91-11.05 6.46-5.6 15.66-11.43 26.82-17.17-14.46 23.53-25.88 33.04-31.31 34.02z m188.14-76.42c19.94-0.56 26.9 2.73 28.72 3.9-1.22 5.4-2.92 5.76-3.74 5.94-4.42 0.94-13.72-1.43-27.5-9.75 0.85-0.04 1.69-0.07 2.52-0.09z m-99.85-12.03c2.3-6.05 6.02-16.25 9.87-28.52 5.1 5.93 9.5 10.7 12.44 13.8 2.1 2.22 5.01 5.22 8.55 8.73a525.84 525.84 0 0 0-21.14 5.39c-2.8 0.78-6.43 1.82-10.69 3.12 0.35-0.9 0.68-1.74 0.97-2.52z m-8.79-117.55c0.2-0.13 0.88-0.5 2.41-0.78 0.15-0.03 0.28-0.05 0.4-0.06 0.83 1.62 2.83 7.01 2.03 20.41-5.39-11.83-5.5-18.09-4.84-19.57z" fill="#C1272D" p-id="1883"></path></svg>