<?xml version="1.0" standalone="no"?><!DOCTYPE svg PUBLIC "-//W3C//DTD SVG 1.1//EN" "http://www.w3.org/Graphics/SVG/1.1/DTD/svg11.dtd"><svg t="1620351295682" class="icon" viewBox="0 0 1024 1024" version="1.1" xmlns="http://www.w3.org/2000/svg" p-id="2181" xmlns:xlink="http://www.w3.org/1999/xlink" width="200" height="200"><defs><style type="text/css"></style></defs><path d="M832.87 315.63c1.03-17.55-5.15-35.44-18.56-48.85L701.35 153.82c-11.62-15.67-30.26-25.83-51.27-25.83H256.83c-26.52 0-49.25 16.18-58.88 39.21a63.56 63.56 0 0 0-5.05 24.91V545h-24.88c-22.09 0-40 17.91-40 40v142.8c0 22.09 17.91 40 40 40h24.88v70.48h0.46c3.26 32.18 30.43 57.29 63.47 57.29h512.39v0.06c35.23 0 63.79-28.56 63.79-63.79V319.75c0.01-1.39-0.05-2.76-0.14-4.12zM236.13 584.08h57.8c32.38 0 49.8 23.4 49.8 47.84s-17.42 47.84-49.8 47.84H272v53.06h-35.87V584.08z m533.09 247.7H256.7V767.8h406.64c22.09 0 40-17.91 40-40V585c0-22.09-17.91-40-40-40H256.7V191.78h327.51v121.45c0 35.23 28.56 63.79 63.79 63.79h121.22v454.76z m-404.58-98.97V584.08H396l46.73 74.78v-74.78h35.87v148.73h-31.36l-46.73-74.78v74.78h-35.87z m153.51-133.27c10.66-10.86 22.96-16.71 40.58-16.71 37.51 0 53.49 24.86 56.98 49.3h-36.07c-2.87-11.28-8.61-16.71-20.91-16.71-6.56 0-11.48 2.92-14.14 6.48-3.28 4.39-5.33 9.4-5.33 36.56 0 27.16 2.05 32.38 5.33 36.77 2.66 3.55 7.58 6.27 14.14 6.27 7.58 0 12.71-2.3 15.99-5.85 4.1-4.18 5.53-10.24 5.53-15.88v-2.09h-21.52v-30.5h57.18v20.68c0 24.02-3.69 38.02-14.76 49.51-12.5 13.16-26.44 16.71-42.43 16.71-17.01 0-29.92-5.85-40.58-16.71-15.37-15.67-14.76-36.56-14.76-58.91s-0.6-43.25 14.77-58.92z m251.07-286.31H648V191.78h1.09l120.13 120.13v1.32z" fill="#F7931E" p-id="2182"></path><path d="M356.47 320.22c17.75 0 32.14-14.39 32.14-32.14s-14.39-32.14-32.14-32.14-32.14 14.39-32.14 32.14c0 17.76 14.39 32.14 32.14 32.14zM307.86 631.92c0-7.73-5.74-15.04-15.58-15.04H272v30.08h20.29c9.83 0 15.57-7.31 15.57-15.04zM526.75 410c-2.93-19.77-19.97-34.94-40.55-34.94-9.03 0-17.37 2.93-24.14 7.87-3.91-16.53-18.76-28.83-36.48-28.83-18.47 0-33.82 13.36-36.92 30.94-2.56-0.66-5.25-1.01-8.01-1.01-15.77 0-28.88 11.37-31.61 26.35-14.82 2.89-26 15.94-26 31.61 0 17.79 14.42 32.21 32.21 32.21H523.1c17.79 0 32.21-14.42 32.21-32.21 0-16.55-12.49-30.18-28.56-31.99z" fill="#F7931E" p-id="2183"></path></svg>