<?xml version="1.0" standalone="no"?><!DOCTYPE svg PUBLIC "-//W3C//DTD SVG 1.1//EN" "http://www.w3.org/Graphics/SVG/1.1/DTD/svg11.dtd"><svg t="1620351359767" class="icon" viewBox="0 0 1024 1024" version="1.1" xmlns="http://www.w3.org/2000/svg" p-id="2933" xmlns:xlink="http://www.w3.org/1999/xlink" width="200" height="200"><defs><style type="text/css"></style></defs><path d="M832.87 315.63c1.03-17.55-5.15-35.44-18.56-48.85L701.35 153.82c-11.62-15.67-30.26-25.83-51.27-25.83H256.83c-26.52 0-49.25 16.18-58.88 39.21a63.56 63.56 0 0 0-5.05 24.91V545h-24.88c-22.09 0-40 17.91-40 40v142.8c0 22.09 17.91 40 40 40h24.88v70.48h0.46c3.26 32.18 30.43 57.29 63.47 57.29h512.39v0.06c35.23 0 63.79-28.56 63.79-63.79V319.75c0.01-1.39-0.05-2.76-0.14-4.12zM238.93 584.08h57.8c32.38 0 49.8 23.4 49.8 47.84s-17.42 47.84-49.8 47.84H274.8v53.06h-35.87V584.08z m530.29 247.7H256.7V767.8h406.64c22.09 0 40-17.91 40-40V585c0-22.09-17.91-40-40-40H256.7V191.78h327.51v121.45c0 35.23 28.56 63.79 63.79 63.79h121.22v454.76zM427.29 679.33c-1.84-1.88-4.92-3.34-9.63-3.97l-17.63-2.51c-12.91-1.88-22.75-6.27-29.31-13.16-6.76-7.1-10.04-17.13-10.04-29.87 0-27.16 20.09-47 53.29-47 20.91 0 36.69 5.01 49.19 17.76l-22.54 22.98c-9.22-9.4-21.32-8.77-27.67-8.77-12.5 0-17.63 7.31-17.63 13.79 0 1.88 0.61 4.6 2.87 6.89 1.84 1.88 4.92 3.76 10.04 4.39l17.63 2.51c13.12 1.88 22.54 6.06 28.69 12.32 7.79 7.73 10.86 18.8 10.86 32.59 0 30.29-25.62 46.79-56.36 46.79-22.34 0-40.58-4.18-55.34-19.64l22.96-23.4c7.58 7.73 20.91 10.44 32.59 10.44 14.14 0 20.91-4.8 20.91-13.37-0.01-3.54-0.83-6.47-2.88-8.77z m155.15 38.86c-10.04 10.24-24.18 14.62-39.35 14.62h-54.11V584.08h54.11c15.17 0 29.31 4.39 39.35 14.62 17.01 17.34 15.17 36.35 15.17 59.74 0 23.4 1.85 42.41-15.17 59.75z m186.78-404.96H648V191.78h1.09l120.13 120.13v1.32z" fill="#0D33D3" p-id="2934"></path><path d="M540.63 616.67h-15.78v83.56h15.78c9.02 0 13.94-3.34 17.22-8.36 2.87-4.18 3.89-8.15 3.89-33.42 0-25.07-1.03-29.24-3.89-33.42-3.28-5.02-8.2-8.36-17.22-8.36zM310.67 631.92c0-7.73-5.74-15.04-15.58-15.04H274.8v30.08h20.29c9.84 0 15.58-7.31 15.58-15.04zM520 435.33H344.06c-13.25 0-24 10.75-24 24s10.75 24 24 24H520c13.25 0 24-10.75 24-24s-10.75-24-24-24zM330.07 299.88l80.13 65.41 30.35-37.18-80.13-65.41c-10.27-8.38-25.39-6.85-33.77 3.42-8.37 10.26-6.84 25.38 3.42 33.76zM510.61 406.86s-21.39-16.03-23.86-28.91c-2.99-15.57-8.51-34.43-38.09-42.32l-30.35 37.18c-0.01 0 35.56 56.12 92.3 34.05z" fill="#0D33D3" p-id="2935"></path></svg>