<?xml version="1.0" standalone="no"?><!DOCTYPE svg PUBLIC "-//W3C//DTD SVG 1.1//EN" "http://www.w3.org/Graphics/SVG/1.1/DTD/svg11.dtd"><svg t="1620351381438" class="icon" viewBox="0 0 1024 1024" version="1.1" xmlns="http://www.w3.org/2000/svg" p-id="3383" xmlns:xlink="http://www.w3.org/1999/xlink" width="200" height="200"><defs><style type="text/css"></style></defs><path d="M832.87 315.63c1.03-17.55-5.15-35.44-18.56-48.85L701.35 153.82c-11.62-15.67-30.26-25.83-51.27-25.83H256.83c-26.52 0-49.25 16.18-58.88 39.21a63.56 63.56 0 0 0-5.05 24.91V545h-24.88c-22.09 0-40 17.91-40 40v142.8c0 22.09 17.91 40 40 40h24.88v70.48h0.46c3.26 32.18 30.43 57.29 63.47 57.29h512.39v0.06c35.23 0 63.79-28.56 63.79-63.79V319.75c0.01-1.39-0.05-2.76-0.14-4.12zM352.46 732.81h-41.61l-25.82-55.36h-12.09v55.36h-35.87V584.08h57.8c32.38 0 49.8 23.4 49.8 47.84 0 20.26-12.3 33-23.77 38.85l31.56 62.04z m416.76 98.97H256.7V767.8h406.64c22.09 0 40-17.91 40-40V585c0-22.09-17.91-40-40-40H256.7V191.78h327.51v121.45c0 35.23 28.56 63.79 63.79 63.79h121.22v454.76z m-413.28-98.97l53.08-148.73h27.67l53.08 148.73h-37.51l-6.76-22.14h-44.89l-7.17 22.14h-37.5z m263.99 0h-41.61l-25.82-55.36h-12.09v55.36h-35.87V584.08h57.8c32.38 0 49.8 23.4 49.8 47.84 0 20.26-12.3 33-23.77 38.85l31.56 62.04z m149.29-419.58H648V191.78h1.09l120.13 120.13v1.32z" fill="#D4145A" p-id="3384"></path><path d="M560.7 616.88h-20.29v30.08h20.29c9.84 0 15.58-7.31 15.58-15.04 0-7.73-5.74-15.04-15.58-15.04zM423.78 640.48l-13.11 39.69h25.41zM293.23 616.88h-20.29v30.08h20.29c9.84 0 15.58-7.31 15.58-15.04-0.01-7.73-5.75-15.04-15.58-15.04zM492.95 411.63H351.16c-17.75 0-32.14 14.39-32.14 32.14s14.39 32.14 32.14 32.14h141.79c17.75 0 32.14-14.39 32.14-32.14s-14.39-32.14-32.14-32.14zM492.95 337.55H351.16c-17.75 0-32.14 14.39-32.14 32.14s14.39 32.14 32.14 32.14h141.79c17.75 0 32.14-14.39 32.14-32.14 0-17.76-14.39-32.14-32.14-32.14zM492.95 263.46H351.16c-17.75 0-32.14 14.39-32.14 32.14s14.39 32.14 32.14 32.14h141.79c17.75 0 32.14-14.39 32.14-32.14s-14.39-32.14-32.14-32.14z" fill="#D4145A" p-id="3385"></path></svg>