<?xml version="1.0" standalone="no"?><!DOCTYPE svg PUBLIC "-//W3C//DTD SVG 1.1//EN" "http://www.w3.org/Graphics/SVG/1.1/DTD/svg11.dtd"><svg t="1620351471216" class="icon" viewBox="0 0 1024 1024" version="1.1" xmlns="http://www.w3.org/2000/svg" p-id="4428" xmlns:xlink="http://www.w3.org/1999/xlink" width="200" height="200"><defs><style type="text/css"></style></defs><path d="M832.87 315.63c1.03-17.55-5.15-35.44-18.56-48.85L701.35 153.82c-11.62-15.67-30.26-25.83-51.27-25.83H256.83c-26.52 0-49.25 16.18-58.88 39.21a63.56 63.56 0 0 0-5.05 24.91V545h-24.88c-22.09 0-40 17.91-40 40v142.8c0 22.09 17.91 40 40 40h24.88v70.48h0.46c3.26 32.18 30.43 57.29 63.47 57.29h512.39v0.06c35.23 0 63.79-28.56 63.79-63.79V319.75c0.01-1.39-0.05-2.76-0.14-4.12z m-63.65 516.15H256.7V767.8h406.64c22.09 0 40-17.91 40-40V585c0-22.09-17.91-40-40-40H256.7V191.78h327.51v121.45c0 35.23 28.56 63.79 63.79 63.79h121.22v454.76z m-371.7-98.97h-41.61l-25.82-55.36H318v55.36h-35.87V584.08h57.8c32.38 0 49.8 23.4 49.8 47.84 0 20.26-12.3 33-23.77 38.85l31.56 62.04z m97.77-34.47h-22.96l-20.7-36.76v71.23h-35.87V584.08h35.25l32.79 65.59 32.79-65.59h35.25v148.73h-35.87v-71.23l-20.68 36.76z m273.93-385.11H648V191.78h1.09l120.13 120.13v1.32z" fill="#4F75D3" p-id="4429"></path><path d="M338.29 616.88H318v30.08h20.29c9.84 0 15.58-7.31 15.58-15.04-0.01-7.73-5.75-15.04-15.58-15.04zM492.41 343.63L358.6 266.38c-12.99-7.5-29.22 1.87-29.22 16.87v154.51c0 15 16.24 24.37 29.22 16.87l133.81-77.25c12.99-7.5 12.99-26.25 0-33.75z" fill="#4F75D3" p-id="4430"></path></svg>