<?xml version="1.0" standalone="no"?><!DOCTYPE svg PUBLIC "-//W3C//DTD SVG 1.1//EN" "http://www.w3.org/Graphics/SVG/1.1/DTD/svg11.dtd"><svg t="1620351395831" class="icon" viewBox="0 0 1024 1024" version="1.1" xmlns="http://www.w3.org/2000/svg" p-id="3533" xmlns:xlink="http://www.w3.org/1999/xlink" width="200" height="200"><defs><style type="text/css"></style></defs><path d="M832.87 315.63c1.03-17.55-5.15-35.44-18.56-48.85L701.35 153.82c-11.62-15.67-30.26-25.83-51.27-25.83H256.83c-26.52 0-49.25 16.18-58.88 39.21a63.56 63.56 0 0 0-5.05 24.91V545h-24.88c-22.09 0-40 17.91-40 40v142.8c0 22.09 17.91 40 40 40h24.88v70.48h0.46c3.26 32.18 30.43 57.29 63.47 57.29h512.39v0.06c35.23 0 63.79-28.56 63.79-63.79V319.75c0.01-1.39-0.05-2.76-0.14-4.12zM227.52 616.67v-32.59h107.6v32.59h-35.87v116.14h-35.87V616.67h-35.86z m541.7 215.11H256.7V767.8h406.64c22.09 0 40-17.91 40-40V585c0-22.09-17.91-40-40-40H256.7V191.78h327.51v121.45c0 35.23 28.56 63.79 63.79 63.79h121.22v454.76z m-425.08-247.7h40.79l21.32 41.99 21.32-41.99h40.79l-42.63 72.49 45.5 76.25h-40.99l-23.98-45.75-23.98 45.75h-40.99l45.5-76.25-42.65-72.49z m133.22 32.59v-32.59h107.6v32.59H549.1v116.14h-35.87V616.67h-35.87z m291.86-303.44H648V191.78h1.09l120.13 120.13v1.32z" fill="#24A0C6" p-id="3534"></path><path d="M351.47 320.22H479.2c17.75 0 32.14-14.39 32.14-32.14s-14.39-32.14-32.14-32.14H351.47c-17.75 0-32.14 14.39-32.14 32.14 0 17.76 14.39 32.14 32.14 32.14zM543.98 384.04H351.47c-17.75 0-32.14 14.39-32.14 32.14s14.39 32.14 32.14 32.14h192.51c17.75 0 32.14-14.39 32.14-32.14-0.01-17.75-14.4-32.14-32.14-32.14z" fill="#24A0C6" p-id="3535"></path></svg>