<?xml version="1.0" standalone="no"?><!DOCTYPE svg PUBLIC "-//W3C//DTD SVG 1.1//EN" "http://www.w3.org/Graphics/SVG/1.1/DTD/svg11.dtd"><svg t="1620351339094" class="icon" viewBox="0 0 1024 1024" version="1.1" xmlns="http://www.w3.org/2000/svg" p-id="2632" xmlns:xlink="http://www.w3.org/1999/xlink" width="200" height="200"><defs><style type="text/css"></style></defs><path d="M832.87 315.63c1.03-17.55-5.15-35.44-18.56-48.85L701.35 153.82c-11.62-15.67-30.26-25.83-51.27-25.83H256.83c-26.52 0-49.25 16.18-58.88 39.21a63.56 63.56 0 0 0-5.05 24.91V545h-24.88c-22.09 0-40 17.91-40 40v142.8c0 22.09 17.91 40 40 40h24.88v70.48h0.46c3.26 32.18 30.43 57.29 63.47 57.29h512.39v0.06c35.23 0 63.79-28.56 63.79-63.79V319.75c0.01-1.39-0.05-2.76-0.14-4.12z m-63.65 516.15H256.7V767.8h406.64c22.09 0 40-17.91 40-40V585c0-22.09-17.91-40-40-40H256.7V191.78h327.51v121.45c0 35.23 28.56 63.79 63.79 63.79h121.22v454.76zM272.98 616.67v-32.59h96.53v28.41l-56.16 87.74h56.16v32.59h-98.99V704.4l55.95-87.74h-53.49z m117.44 116.14V584.08h35.87v148.73h-35.87z m65.38 0V584.08h57.8c32.38 0 49.8 23.4 49.8 47.84s-17.42 47.84-49.8 47.84h-21.93v53.06H455.8z m313.42-419.58H648V191.78h1.09l120.13 120.13v1.32z" fill="#93278F" p-id="2633"></path><path d="M527.54 631.92c0-7.73-5.74-15.04-15.58-15.04h-20.29v30.08h20.29c9.84 0 15.58-7.31 15.58-15.04zM494.2 408.34H352.41c-17.75 0-32.14 14.39-32.14 32.14s14.39 32.14 32.14 32.14H494.2c17.75 0 32.14-14.39 32.14-32.14-0.01-17.75-14.39-32.14-32.14-32.14zM494.2 334.26H352.41c-17.75 0-32.14 14.39-32.14 32.14s14.39 32.14 32.14 32.14H494.2c17.75 0 32.14-14.39 32.14-32.14-0.01-17.76-14.39-32.14-32.14-32.14zM494.2 260.17H352.41c-17.75 0-32.14 14.39-32.14 32.14s14.39 32.14 32.14 32.14H494.2c17.75 0 32.14-14.39 32.14-32.14-0.01-17.75-14.39-32.14-32.14-32.14z" fill="#93278F" p-id="2634"></path></svg>